<?xml version="1.0" standalone="no"?>
<!DOCTYPE svg PUBLIC "-//W3C//DTD SVG 20010904//EN"
 "http://www.w3.org/TR/2001/REC-SVG-20010904/DTD/svg10.dtd">
<svg version="1.0" xmlns="http://www.w3.org/2000/svg"
 width="1024.000000pt" height="1024.000000pt" viewBox="0 0 1024.000000 1024.000000"
 preserveAspectRatio="xMidYMid meet">

<g transform="translate(0.000000,1024.000000) scale(0.100000,-0.100000)"
fill="#000000" stroke="none">
<path d="M0 5120 l0 -5120 5120 0 5120 0 0 5120 0 5120 -5120 0 -5120 0 0
-5120z m6112 1581 l3 -589 75 54 c149 108 315 177 504 210 137 24 388 15 517
-20 156 -41 293 -98 392 -164 59 -39 29 -38 -57 3 -95 44 -210 86 -228 83 -7
-2 -16 -7 -21 -13 -5 -6 -12 -4 -20 6 -6 9 -18 14 -26 11 -11 -4 -11 -6 0 -13
11 -7 10 -9 -3 -9 -10 0 -18 -8 -18 -17 0 -13 -3 -14 -12 -5 -7 7 -19 12 -27
12 -14 0 -14 -1 -1 -10 11 -7 7 -10 -17 -10 -20 0 -33 -5 -33 -13 0 -7 -14
-24 -31 -37 -17 -14 -44 -37 -61 -52 -17 -16 -37 -28 -44 -28 -8 0 -14 -4 -14
-10 0 -5 -9 -10 -19 -10 -13 0 -26 -15 -41 -44 -14 -30 -26 -43 -36 -39 -8 3
-14 1 -14 -5 0 -6 -15 -14 -32 -18 -28 -6 -30 -8 -14 -14 18 -6 16 -9 -13 -23
-19 -9 -38 -14 -44 -10 -6 3 -7 1 -3 -6 9 -14 -17 -41 -38 -41 -9 0 -16 -5
-16 -11 0 -6 -7 -8 -16 -5 -9 3 -12 2 -9 -5 4 -6 -2 -13 -14 -16 -16 -4 -21
-13 -21 -37 0 -24 -3 -27 -10 -16 -6 9 -10 10 -10 3 0 -6 7 -18 15 -26 17 -18
10 -27 -24 -28 -22 0 -23 -2 -7 -8 14 -5 5 -10 -35 -19 -30 -7 -100 -35 -157
-63 -83 -41 -117 -65 -180 -127 -102 -102 -149 -157 -143 -174 2 -8 -6 -5 -20
7 -13 11 -18 13 -11 5 6 -8 12 -23 11 -34 0 -20 -1 -20 -8 -2 -5 14 -10 16
-15 7 -6 -8 -11 -9 -21 -1 -16 13 -89 -23 -125 -62 -13 -16 -32 -28 -41 -28
-8 0 -22 -11 -29 -25 -8 -16 -19 -24 -28 -20 -11 4 -13 0 -9 -15 4 -16 -1 -23
-19 -30 -13 -5 -25 -17 -25 -27 -1 -17 -2 -17 -6 0 -8 32 -28 18 -24 -18 0 -6
-42 -17 -97 -24 -263 -34 -314 -40 -327 -34 -13 4 -15 65 -16 412 -1 223 -3
727 -5 1119 l-3 712 410 0 409 0 2 -589z m-2486 -326 c189 -33 373 -112 537
-229 42 -31 80 -56 82 -56 3 0 5 59 5 130 l0 130 400 0 400 0 0 -1435 c0
-1269 -2 -1435 -15 -1435 -8 0 -15 5 -15 10 0 6 -130 10 -371 10 -342 0 -373
-1 -385 -17 -11 -15 -13 2 -14 112 0 122 -1 131 -19 131 -11 0 -17 -4 -15 -8
3 -4 -19 -24 -48 -46 -68 -49 -83 -58 -74 -44 5 8 2 10 -9 6 -9 -4 -13 -9 -10
-12 8 -9 -32 -32 -47 -27 -8 3 -38 -8 -67 -24 -29 -16 -48 -30 -42 -32 7 -3
-3 -10 -21 -16 -30 -11 -31 -11 -14 2 26 20 25 20 -78 -15 -49 -17 -96 -30
-105 -30 -14 0 -14 -2 -1 -11 12 -8 10 -10 -9 -5 -14 3 -82 0 -153 -6 -407
-37 -807 106 -1131 404 -50 46 -94 82 -99 80 -4 -1 -8 7 -8 19 0 14 -5 19 -14
16 -10 -4 -13 -1 -9 9 3 9 -7 28 -24 47 -17 18 -36 41 -42 52 l-13 20 7 -20
c4 -14 3 -17 -5 -9 -6 6 -12 20 -15 32 -4 24 -23 62 -31 62 -2 0 0 -9 6 -20 6
-11 8 -20 6 -20 -10 0 -35 57 -29 64 4 3 1 6 -5 6 -27 0 -123 237 -152 375
-75 361 -35 698 121 1008 213 424 590 706 1059 791 106 19 357 20 466 1z
m2331 -1117 c-3 -8 -6 -5 -6 6 -1 11 2 17 5 13 3 -3 4 -12 1 -19z m1487 -765
c-111 -191 -271 -316 -474 -370 -116 -30 -295 -19 -414 27 -46 17 -27 19 44 4
159 -33 378 -11 502 52 146 74 282 205 348 338 11 21 16 24 18 13 2 -9 -9 -38
-24 -64z m-2441 -1010 c-7 -2 -19 -2 -25 0 -7 3 -2 5 12 5 14 0 19 -2 13 -5z
m-1340 -30 c-7 -2 -19 -2 -25 0 -7 3 -2 5 12 5 14 0 19 -2 13 -5z"/>
<path d="M6117 5413 c-4 -3 -7 -11 -7 -17 0 -6 5 -5 12 2 6 6 9 14 7 17 -3 3
-9 2 -12 -2z"/>
<path d="M3410 5679 c-295 -45 -541 -269 -622 -568 -24 -88 -29 -295 -10 -394
26 -132 95 -258 197 -362 81 -83 176 -142 290 -181 104 -36 301 -45 409 -20
276 65 499 279 567 544 24 94 26 280 4 386 -51 247 -213 442 -451 543 -119 51
-261 70 -384 52z"/>
<path d="M4040 3610 c-9 -6 -10 -10 -3 -10 6 0 15 5 18 10 8 12 4 12 -15 0z"/>
</g>
</svg>
