<svg xmlns="http://www.w3.org/2000/svg" viewBox="0 0 64 64" width="64" height="64">
  <circle cx="32" cy="32" r="32" fill="#1a2332"/>
  <circle cx="32" cy="26" r="11" fill="#d4956a"/>
  <ellipse cx="32" cy="52" rx="18" ry="14" fill="#d4956a"/>
  <circle cx="32" cy="26" r="8" fill="#e8b08a"/>
  <ellipse cx="28" cy="25" rx="1.5" ry="2" fill="#3d2010"/>
  <ellipse cx="36" cy="25" rx="1.5" ry="2" fill="#3d2010"/>
  <path d="M28 30 q4 2.5 8 0" stroke="#9a6040" stroke-width="1.5" fill="none" stroke-linecap="round"/>
  <path d="M22 22 q10-8 20 0" fill="#3d2010"/>
  <path d="M22 22 q0-2 10-3 q10 1 10 3 q-10-4-20 0z" fill="#6b4226"/>
  <path d="M18 20 q14-6 28 0 q-4-2-14-2 q-10 0-14 2z" fill="#6b4226"/>
</svg>